<?xml version="1.0" encoding="utf-8"?>
<!-- Generator: Adobe Illustrator 24.3.0, SVG Export Plug-In . SVG Version: 6.00 Build 0)  -->
<svg version="1.1" xmlns="http://www.w3.org/2000/svg" xmlns:xlink="http://www.w3.org/1999/xlink" x="0px" y="0px"
	 viewBox="0 0 1190.55 1190.55" style="enable-background:new 0 0 1190.55 1190.55;" xml:space="preserve">
<style type="text/css">
	.st0{fill:#C2C3C9;}
	.st1{fill:#A01127;stroke:#211915;stroke-width:2.4181;stroke-linecap:round;stroke-linejoin:round;stroke-miterlimit:10;}
	.st2{fill:#002E82;stroke:#211915;stroke-width:1.3118;stroke-linecap:round;stroke-linejoin:round;stroke-miterlimit:10;}
	.st3{fill:#FFFFFF;stroke:#211915;stroke-width:1.3118;stroke-linecap:round;stroke-linejoin:round;stroke-miterlimit:10;}
	.st4{fill:#C69B8F;stroke:#211915;stroke-width:1.3118;stroke-miterlimit:10;}
	.st5{fill:#ECCFC5;stroke:#211915;stroke-width:1.3118;stroke-miterlimit:10;}
	.st6{fill:#FFFFFF;stroke:#211915;stroke-width:2.1864;stroke-miterlimit:10;}
	.st7{fill:none;stroke:#211915;stroke-width:1.3118;stroke-linecap:round;stroke-linejoin:round;stroke-miterlimit:10;}
	.st8{fill:#444242;stroke:#211915;stroke-width:1.3118;stroke-linecap:round;stroke-linejoin:round;stroke-miterlimit:10;}
	.st9{fill:#7F5F57;stroke:#211915;stroke-width:1.3118;stroke-miterlimit:10;}
	.st10{fill:#66212E;stroke:#211915;stroke-width:1.3118;stroke-linecap:round;stroke-linejoin:round;stroke-miterlimit:10;}
	.st11{fill:#001A5A;stroke:#211915;stroke-width:1.3118;stroke-linecap:round;stroke-linejoin:round;stroke-miterlimit:10;}
	.st12{fill:#D493A1;stroke:#211915;stroke-width:1.3118;stroke-miterlimit:10;}
	.st13{fill:#001A5A;stroke:#FFFFFF;stroke-width:1.3118;stroke-linecap:round;stroke-linejoin:round;stroke-miterlimit:10;}
	.st14{fill:#DB9600;}
	.st15{fill:#E6B54A;}
	.st16{fill:#001A5A;}
	.st17{fill:#FFFFFF;}
	.st18{fill:#5B5B5F;stroke:#211915;stroke-width:1.3118;stroke-miterlimit:10;}
	
		.st19{opacity:0.5;fill:#FFFFFF;stroke:#211915;stroke-width:0.2418;stroke-linecap:round;stroke-linejoin:round;stroke-miterlimit:10;}
	.st20{fill:none;}
</style>
<g>
</g>
<g>
	<path class="st0" d="M935.14,1041.02c0,4.86-127.09,8.79-283.85,8.79s-283.85-3.94-283.85-8.79c0-4.86,127.08-8.8,283.85-8.8
		S935.14,1036.16,935.14,1041.02z"/>
	<g>
		<path class="st1" d="M772.37,1003.65c0,0,35.72,1.81,72.44,13.19c36.72,11.38,43.75,29.74,43.75,29.74l-165.79-0.55
			c0,0-5.55-22.95-1.51-33.88c4.04-10.93,17.1-9.81,27.24-10.83C758.64,1000.3,772.37,1003.65,772.37,1003.65z"/>
		<path class="st2" d="M736.09,1027.59c29.99,10.18,97.75,11.91,89.21-3.97c-8.08-15.03,8.19-8.08,11.4-9.14
			c2.68,0.74,5.39,1.53,8.1,2.36c36.72,11.38,43.75,29.74,43.75,29.74l-165.79-0.55c0,0-7.48-22.87-1.51-33.88
			C721.26,1012.15,726.23,1024.24,736.09,1027.59z"/>
		<path class="st3" d="M883.19,1038.79c4.12,4.58,5.37,7.8,5.37,7.8l-165.79-0.55c0,0-1.11-4.57-1.97-10.59L883.19,1038.79z"/>
		<path class="st1" d="M551.27,1001.19c0,0-35.74,1.61-72.51,12.78c-36.78,11.18-43.92,29.5-43.92,29.5l165.8,0.37
			c0,0,5.67-22.92,1.69-33.87c-3.98-10.95-17.05-9.91-27.18-10.98C565.01,997.92,551.27,1001.19,551.27,1001.19z"/>
		<path class="st4" d="M739.88,729.36c0,0,7.67-7.54,12.18-7.88c4.51-0.34,2.86,4.39,2.86,4.39s5.27-5.4,9.31-6.04
			c4.04-0.65,3.68,5.56,3.68,5.56s13.14-12.64,14.35-8.62c1.22,4.02-5.43,14.44-5.43,14.44s-11.65,17.24-16.97,18.39
			C754.52,750.75,739.88,729.36,739.88,729.36z"/>
		<path class="st5" d="M719.01,702.35c0,0-15.65,24.62-16.16,29.12c-0.5,4.5,42.47,33.54,51.43,35.4
			c8.96,1.86,48.36-44.55,46.61-49.17c-1.75-4.62-32.41,19.88-35.35,22.28c-2.95,2.4-5.59,4.25-5.59,4.25s-7.66-10.85-16.19-15.81
			c-8.52-4.95-8.52-4.95-8.52-4.95s-8.31-14.85-10.66-18.93C722.23,700.46,719.01,702.35,719.01,702.35z"/>
		<path class="st4" d="M487.31,711.99c0,0-10.33-3.01-14.46-1.17c-4.13,1.84-0.44,5.22-0.44,5.22s-7.2-2.25-11.06-0.91
			c-3.86,1.34-0.6,6.64-0.6,6.64s-17.56-4.91-16.72-0.79c0.84,4.12,11.63,10.14,11.63,10.14s18.43,9.67,23.66,8.15
			C484.55,737.76,487.31,711.99,487.31,711.99z"/>
		<path class="st5" d="M492.9,678.31c0,0,25.45,14.26,28.02,17.99c2.58,3.72-21.51,49.65-28.52,55.54
			c-7.01,5.89-63.69-16.33-64.34-21.22c-0.64-4.89,37.96,2.15,41.69,2.87c3.73,0.72,6.94,1.09,6.94,1.09s1.61-13.18,6.77-21.59
			c5.16-8.4,5.16-8.4,5.16-8.4s0.29-17.02,0.42-21.72C489.16,678.18,492.9,678.31,492.9,678.31z"/>
		<path class="st1" d="M532.49,505.62c0,0-162.33,99.97-164.08,101.01c-1.75,1.04-10.41,4.57-11.09,6.8
			c-0.68,2.23,7.76,14.53,7.76,14.53l122.19,80.26l19.87-23.91l-74.82-65.43l97.07-51.17L532.49,505.62z"/>
		<path class="st1" d="M600.09,436.57l0.82,70.19c0,0-61.96-4.63-68.42-1.14c0,0-14.23,46.83-18.97,107.71
			c-4.75,60.88-2.1,121-2.1,121l22.13,10.16l-2.26,11.21l170.26,1.73l-2.77-12.6c0,0,14.54-7.76,16.91-9.9
			c2.37-2.15-16.65-221.54-19.38-223.38c-7.57-5.08-70.64-4.81-70.64-4.81l8.69-69.04L600.09,436.57z"/>
		<path class="st5" d="M625.21,505.42l9.27-70.25l-34.27-1.15l0.17,71.62c2.27,0.28,4.58,0.49,6.92,0.6
			C613.87,506.58,619.87,506.2,625.21,505.42z"/>
		<path class="st5" d="M709.56,310.39c-0.11-29.27-34.41-54.78-80.12-57.07c-42.44-2.12-78.43,16.55-84.55,42.62l0,0l-15.6,111.09
			c-3.25,29.09,27.68,54.42,73.17,59.5c45.49,5.08,84.4-7.24,91.55-41.1C694.02,425.44,709.73,358.58,709.56,310.39z"/>
		<path class="st6" d="M599.2,345.23c-0.49,9.82-6.77,17.49-14.02,17.13c-7.25-0.36-12.73-8.62-12.23-18.44
			c0.49-9.82,6.77-17.49,14.02-17.13C594.21,327.16,599.69,335.41,599.2,345.23z"/>
		<path class="st6" d="M668.66,348.71c-0.49,9.82-6.77,17.49-14.01,17.13c-7.25-0.36-12.73-8.62-12.24-18.44
			c0.49-9.82,6.77-17.49,14.02-17.12C663.68,330.63,669.15,338.89,668.66,348.71z"/>
		<path class="st7" d="M619.56,328.43c0,0-7.8,28.65-18.68,42.53c-10.88,13.89-15.96,13.63-13.68,18.84
			c2.29,5.21,21.46,13.81,30.54,5.35c9.09-8.46,1.45-16.9-3.76-14.62"/>
		<path class="st8" d="M573.51,307.2c0,0,5.16-9.72,15.11-13.46c9.95-3.75,16.83,2.96,6.31,9.65
			C584.4,310.07,573.51,307.2,573.51,307.2z"/>
		<path class="st8" d="M667.28,316.34c0,0-19.33,0.39-23.5-5.27c-4.17-5.66-1.09-12.09,4.41-11.81
			C653.69,299.53,667.28,316.34,667.28,316.34z"/>
		<path class="st9" d="M581.07,417.6c0,0,44.01-0.2,71.33-24.33c27.32-24.12,25.9-32.09,25.9-32.09s-2.25,53.23-28.77,71.82
			c-36.63,25.68-54.99-10.26-57.64-12.41C589.24,418.44,581.07,417.6,581.07,417.6z"/>
		<path class="st7" d="M671.85,360.99c0,0,14.02-3.27,10.75,5.26"/>
		<path class="st3" d="M663.44,393.05c6.84-8.4,8.51-14.89,8.31-19.46c-3.81,4.83-9.84,11.27-19.36,19.68
			c-19.71,17.41-48.12,22.36-62.4,23.77c3.94,2.09,10.51,4.75,20.16,6.17C627.56,425.78,648.6,411.27,663.44,393.05z"/>
		<polygon class="st1" points="582.35,473.88 647.1,477.12 640.75,507.97 586.74,507.01 		"/>
		<path class="st10" d="M533.55,744.5l-2.26,11.21l170.26,1.73l-2.77-12.6c0,0,0.05-0.03,0.14-0.08
			c-38.86-0.14-135.65-0.52-166.74-0.89L533.55,744.5z"/>
		<path class="st11" d="M531.29,755.71l19.97,245.49c0,0,41.72,3.22,42.45-0.14c0.73-3.36,1.42-220.64,1.42-220.64l9.9-5.17
			l-14.25-9.77l50.19,3.65l-3.05,4.37l8.75,6.1l72.98,226.63l38.02-2.06l-56.13-246.73L531.29,755.71z"/>
		<polygon class="st10" points="469.35,696.46 487.26,708.23 507.13,684.32 492.04,671.13 		"/>
		<path class="st1" d="M706.14,602.88l90.17,47.8c0,0-81.47,49.7-78.8,50.39c2.67,0.69,16.22,24.01,16.22,24.01l113.14-55.46
			c0,0,12.81-7.28,7.31-10.39c-5.51-3.1-9.88-6.15-9.88-6.15S705.42,513.74,696.31,511.56C687.2,509.38,706.14,602.88,706.14,602.88
			z"/>
		<path class="st10" d="M764.73,709.89l-20.61-28.29c-14.64,9.91-27.83,19.16-26.61,19.48c2.67,0.69,16.22,24.01,16.22,24.01
			L764.73,709.89z"/>
		<path class="st2" d="M542.99,1000.73c0,0,52.64,4.07,53.57-0.18c0.25-1.13,0.49-21.49,0.71-50.73l-58.52-1.15L542.99,1000.73z"/>
		<path class="st2" d="M713.67,1007.93l53.57-5.32l-13.61-56.69c-16.81,0.57-43.59,1.38-59.38,2.03L713.67,1007.93z"/>
		<path class="st2" d="M587.41,1025.33c-30.05,10.02-97.82,11.36-89.2-4.46c8.17-14.98-8.14-8.13-11.35-9.21
			c-2.69,0.72-5.4,1.5-8.11,2.32c-36.78,11.18-43.92,29.5-43.92,29.5l165.8,0.37c0,0,7.6-22.82,1.69-33.87
			C602.33,1009.98,597.29,1022.04,587.41,1025.33z"/>
		<path class="st3" d="M440.25,1035.71c-4.15,4.55-5.42,7.77-5.42,7.77l165.8,0.37c0,0,1.13-4.56,2.02-10.58L440.25,1035.71z"/>
		<path class="st12" d="M668.35,407.13c-5.67,0.12-12.12,2.17-18.09,6.16c-10.93,7.31-16.49,18.6-13.67,26.66
			c4.03-1.47,8.33-3.72,12.93-6.94C658.09,427,664.11,417.39,668.35,407.13z"/>
		<path class="st13" d="M656.07,606.74L656.07,606.74c2.36-5.73,3.81-11.96,4.14-18.52c1.53-30.55-21.75-56.55-51.99-58.06
			c-30.24-1.51-56,22.03-57.53,52.58c-0.76,15.24,14.28,53.91,31.75,92.07c18,39.31,19.18,32.43,27.17,19.23
			c4.82-7.97,31.09-57.96,41.85-78.51c1.77-2.76,3.31-5.69,4.59-8.76C656.05,606.76,656.07,606.74,656.07,606.74z"/>
		<path class="st14" d="M606.2,646.07c-0.18,3.49-3.15,6.18-6.63,6l0,0c-3.49-0.17-6.18-3.14-6-6.63l1.68-33.65
			c0.18-3.49,3.15-6.17,6.63-6l0,0c3.49,0.17,6.18,3.15,6,6.63L606.2,646.07z"/>
		<path class="st15" d="M629.91,588.58c-0.84,16.84-13.66,29.88-28.62,29.13c-14.97-0.75-26.41-15.01-25.57-31.84
			c0.84-16.83,13.66-29.88,28.62-29.13C619.3,557.49,630.75,571.74,629.91,588.58z"/>
		<path class="st14" d="M624.83,588.32c-0.68,13.68-11.1,24.28-23.26,23.67c-12.16-0.61-21.46-12.19-20.78-25.87
			c0.68-13.68,11.1-24.27,23.26-23.67C616.21,563.06,625.51,574.64,624.83,588.32z"/>
		<path class="st16" d="M622.57,588.21c-0.59,11.75-9.53,20.86-19.98,20.34c-10.45-0.52-18.44-10.47-17.85-22.23
			c0.59-11.75,9.54-20.86,19.98-20.33C615.17,566.5,623.16,576.46,622.57,588.21z"/>
		<path class="st17" d="M618.14,581.9c-0.23,4.56-3.02,8.13-6.24,7.97c-3.21-0.16-5.64-3.99-5.41-8.55
			c0.23-4.56,3.02-8.13,6.24-7.97C615.95,573.52,618.37,577.34,618.14,581.9z"/>
		<path class="st18" d="M531.49,417.48c0,0-0.75-0.39-2.04-1.07c3.55,25,32.5,45.6,73.02,50.13c41.58,4.64,77.65-5.26,89.01-32.86
			c-6.39,5.69-14.38,11.58-23.43,15.55c-23.11,10.13-50.39,16.26-87.41,4.08C543.61,441.13,531.49,417.48,531.49,417.48z"/>
		<path class="st1" d="M750.36,411.97c-19.15,26.32-59.78,45.8-74.3,41.17c0,0,9.71-22.76,12.82-42.55
			c2.79-17.71,12.62-65.58,8.86-100.71c-2.88-26.86-98.64-36.99-132.68-29c-22.33,5.25-34.91,137.09-33.65,142.54
			c1.25,5.46,1.5,5.81,4.89,10.24c3.38,4.43-27.89-4.51-47.64-59.4c-19.75-54.9,10.91-141.65,34.96-172.7
			c24.05-31.06,79.78-50.61,143.88-42.31c64.1,8.3,98.73,47.47,109.09,84.68C800.43,329.51,769.92,385.07,750.36,411.97z"/>
		<path class="st10" d="M714.62,294.73c-7.13-18.61-59.53-31.84-81.88-34.66c-22.36-2.82-75.7-5.49-87.52,10.05
			c-11.81,15.54-29.21,123.35-26.27,140.9c1.87,11.16,4.65,17.19,11.45,21.7c4.5,2.39,6.97,2.35,5.89,0.93
			c-3.39-4.43-3.63-4.78-4.89-10.24c-1.25-5.46,11.32-137.29,33.65-142.54c34.03-8,129.8,2.14,132.68,29
			c3.76,35.13-6.07,83-8.86,100.71c-3.11,19.79-12.82,42.55-12.82,42.55c7.78,2.48,23.05-1.97,38.49-10.67
			c-0.9,0.44-17.59,8.13-22.5,6.47c-4.35-1.47,0.7-14.99,0.65-15.56c0.13-0.31,0,0,3.39-14.37
			C700.95,398.46,721.76,313.34,714.62,294.73z"/>
		<path class="st19" d="M773.74,373.21c-10.09,18.8-12.15,25.32-16.71,11.79c-3.53-10.48,19.86-90.4-13.57-135.26
			c-46.54-62.45-163.94-51.39-185.13-43.53c-21.19,7.85-47.02,28.26-55.98,54.56c-8.96,26.29-19.7,80.94-19.7,80.94
			s-19.34-69.35,10.93-142.61c33.5-81.07,133.76-97.96,205.04-75.52c76.25,24,96.16,71.56,98.39,122.52
			C800.1,316.99,773.74,373.21,773.74,373.21z"/>
	</g>
	<rect x="97.43" y="101.06" class="st20" width="946.9" height="934"/>
</g>
</svg>
