<?xml version="1.0" encoding="UTF-8"?>
<svg viewBox="0 0 640 480" xmlns="http://www.w3.org/2000/svg">
 <switch>
  <g fill-rule="evenodd">
   <path d="m400.35 402.85c1.043-11.987 1.043-23.472 0-35.424-1.152-11.987-2.053-25.416-6.445-35.424-4.391-10.116-8.963-19.512-20.123-24.156-11.484-4.607-34.633-5.544-47.484-3.204-12.816 2.269-21.779 6.696-28.98 16.885-7.271 10.151-12.061 24.372-14.508 43.487-7.199 4.248-14.832 5.904-23.328 4.824-8.604-1.224-20.375-5.436-27.396-11.268-7.02-5.868-11.843-13.464-14.471-23.328h50.723v-21.744h-207.72v20.916h111.1c1.512 14.472 4.319 27.072 8.855 38.628 4.464 11.484 10.224 21.24 17.712 29.808h202.07z" fill="#999"/>
   <path d="m342.67 183.85c29.988 0 54.324 24.337 54.324 54.324s-24.336 54.324-54.324 54.324c-29.986 0-54.322-24.337-54.322-54.324s24.336-54.324 54.322-54.324" fill="#999"/>
   <path d="m60.651 299.82c14.615-45 56.556-75.457 103.82-75.457 47.304 0 89.244 30.457 103.86 75.457h-207.68z" fill="#999"/>
   <path d="m148.38 196.75c-6.373-8.928-8.425-17.1-6.444-24.948 2.052-7.92 6.696-17.532 18.504-21.744 11.808-4.104 35.46 0.93599 51.516-3.204 15.875-4.284 35.28-8.136 43.489-22.536 8.027-14.688 9.684-35.784 4.824-64.404-0.25201 20.952-9.469 35.388-28.189 44.28-18.9 8.676-62.208 2.016-83.699 8.064-21.601 6.12-37.332 16.704-44.281 28.152-6.84 11.412-4.247 29.844 3.205 39.456 7.45 9.396 20.95 14.976 41.075 16.884z" fill="#999"/>
   <path d="m393.36 397.27c1.043-11.987 1.043-23.472 0-35.424-1.152-11.987-2.053-25.416-6.445-35.424-4.391-10.116-8.963-19.512-20.123-24.156-11.484-4.607-34.633-5.544-47.484-3.204-12.816 2.269-21.779 6.696-28.98 16.885-7.271 10.151-12.096 24.372-14.471 43.487-7.164 4.248-14.904 5.904-23.365 4.824-8.531-1.224-20.375-5.436-27.359-11.268-7.02-5.868-11.808-13.464-14.507-23.328h50.724v-21.744h-207.69v20.916h111.1c1.513 14.472 4.32 27.072 8.856 38.628 4.464 11.484 10.224 21.24 17.712 29.808h202.03z" fill="#7f0000"/>
   <path d="m335.72 178.33c29.986 0 54.324 24.337 54.324 54.324 0 29.986-24.338 54.324-54.324 54.324s-54.324-24.338-54.324-54.324c0-29.987 24.338-54.324 54.324-54.324" fill="#7f0000"/>
   <path d="m53.667 294.24c14.616-45 56.557-75.456 103.86-75.456 47.269 0 89.208 30.456 103.82 75.456h-207.68 1.1e-5z" fill="#7f0000"/>
   <path d="m141.4 191.2c-6.372-9-8.424-17.1-6.444-24.984 2.017-7.92 6.769-17.568 18.54-21.708 11.809-4.14 35.46 0.936 51.516-3.24 15.912-4.284 35.208-8.136 43.453-22.536 8.027-14.688 9.684-35.784 4.824-64.404-0.17999 20.952-9.432 35.388-28.152 44.28-19.007 8.676-62.1 2.016-83.736 8.063-21.6 6.12-37.332 16.704-44.28 28.152-6.84 11.412-4.284 29.844 3.24 39.456 7.486 9.469 20.843 14.977 41.039 16.921z" fill="#7f0000"/>
  </g>
 </switch>
</svg>
